{"glyphs":{"0":{"ha":694,"x_min":32,"x_max":663,"o":"m 467 1058 q 609 791 556 947 q 663 478 663 635 q 657 378 663 428 q 634 257 651 329 q 569 106 617 185 q 457 25 525 51 q 307 -1 389 -1 q 157 76 215 -1 q 74 230 99 154 q 40 370 49 306 q 32 483 32 435 q 67 745 32 613 q 142 965 101 878 q 234 1078 183 1051 q 339 1106 285 1106 q 376 1104 365 1106 q 415 1093 388 1103 q 467 1058 442 1083 m 286 926 q 269 822 269 876 q 282 735 269 776 q 340 694 294 694 q 382 704 363 694 q 410 732 401 714 q 418 796 418 761 l 418 813 q 415 840 418 821 l 404 910 q 384 975 397 957 q 349 996 371 993 q 286 926 311 996 z "},"1":{"ha":579,"x_min":26,"x_max":557,"o":"m 497 1031 q 457 867 496 1010 q 418 664 418 725 q 428 583 422 619 q 443 510 433 547 q 465 435 453 472 q 517 282 476 397 q 557 149 557 167 q 497 32 557 82 q 265 -18 401 -18 q 208 -15 232 -18 q 147 -2 183 -12 q 83 40 110 8 q 39 129 57 81 q 26 219 26 175 q 79 410 26 304 l 181 601 q 233 782 233 703 q 218 876 233 831 q 175 956 203 921 l 142 1001 l 136 1026 l 140 1042 q 223 1097 172 1078 q 376 1115 274 1115 l 447 1086 q 497 1031 488 1065 z "},"2":{"ha":638,"x_min":29,"x_max":607,"o":"m 553 999 q 561 958 561 979 q 536 881 561 914 q 431 798 510 853 q 333 725 353 743 q 313 682 313 707 q 357 649 313 649 q 386 653 374 649 q 410 663 399 658 q 443 681 421 668 q 488 696 465 693 q 529 678 510 696 q 590 551 574 628 q 607 376 607 474 l 606 315 l 604 238 q 570 115 604 175 q 479 24 536 56 l 392 0 q 344 -7 367 -4 q 296 -10 321 -10 q 247 -8 263 -10 q 194 2 231 -7 q 126 36 157 11 q 49 170 69 89 q 29 356 29 251 l 29 415 l 31 476 l 29 506 q 150 742 29 633 l 329 901 q 388 964 388 954 q 367 996 388 988 l 331 1003 q 287 992 306 1003 q 267 958 268 981 q 253 906 267 924 q 208 879 239 888 q 153 892 178 879 q 122 929 128 906 l 118 965 q 127 1009 118 989 q 161 1053 136 1029 q 220 1088 186 1078 q 279 1101 254 1097 q 328 1106 304 1106 q 410 1096 372 1106 l 492 1063 q 553 999 532 1040 z "},"3":{"ha":658,"x_min":29,"x_max":628,"o":"m 531 982 q 539 944 539 963 q 531 899 539 924 l 515 853 q 466 817 481 836 q 449 774 451 797 q 507 675 449 738 q 597 544 565 613 q 628 346 628 476 q 610 217 628 278 q 557 111 593 157 q 426 17 508 38 q 218 -1 340 -1 q 135 17 172 -1 q 75 72 97 35 q 40 169 56 114 q 32 222 35 199 q 29 276 29 246 q 54 471 29 358 l 103 685 q 115 702 107 694 q 136 710 124 710 q 213 667 167 710 q 275 624 260 624 q 306 631 292 624 q 327 651 321 639 q 336 688 333 664 q 328 723 336 710 q 307 743 321 736 l 279 749 l 256 749 l 226 753 q 213 776 218 757 q 221 819 213 796 q 250 847 231 839 q 325 854 301 847 q 353 881 349 861 l 358 907 q 330 964 358 951 q 282 979 301 976 q 210 926 228 979 q 198 901 210 914 q 167 881 186 888 q 113 893 138 881 q 81 932 89 906 l 75 961 q 97 1017 75 989 q 142 1060 118 1046 q 181 1081 167 1075 q 228 1097 194 1088 q 304 1107 261 1107 q 389 1097 351 1107 q 477 1050 440 1078 q 531 982 514 1022 z "},"4":{"ha":724,"x_min":33,"x_max":690,"o":"m 668 1011 l 674 990 q 651 948 674 971 q 618 913 628 925 q 604 896 608 901 l 582 833 q 572 774 572 797 l 576 736 q 647 718 624 728 q 686 676 674 713 l 690 635 q 674 563 690 596 l 649 557 l 626 558 q 604 561 613 558 q 574 543 579 561 l 569 510 q 622 327 569 447 q 674 156 674 207 q 656 81 674 115 q 594 11 639 46 q 444 -19 522 -19 q 328 -6 376 -19 q 252 19 279 8 q 198 44 225 29 q 162 85 171 60 q 153 144 153 111 l 153 169 l 158 206 q 244 359 175 264 q 336 506 314 454 l 342 542 q 336 569 342 560 q 317 582 331 578 q 279 586 304 586 l 156 594 q 33 672 69 610 q 60 805 33 753 q 133 933 86 857 q 240 1051 179 1010 q 347 1101 301 1093 l 404 1108 l 422 1110 q 668 1011 574 1110 m 301 901 q 246 861 260 882 q 232 814 232 840 q 265 774 240 785 q 301 760 289 764 q 351 751 314 757 l 363 814 l 369 874 q 335 908 369 908 q 301 901 315 908 z "},"5":{"ha":683,"x_min":28,"x_max":651,"o":"m 618 1063 q 643 1045 635 1058 q 651 1011 651 1032 l 647 971 l 642 935 l 622 881 q 567 831 610 835 q 515 839 538 831 q 475 872 492 847 q 466 924 475 903 q 429 953 457 944 l 393 954 q 354 957 368 954 q 305 950 322 957 q 274 922 288 943 l 268 894 l 265 868 q 273 833 265 846 q 303 811 281 819 q 472 773 394 811 q 590 656 549 735 q 624 521 611 592 q 636 378 636 450 q 619 221 636 292 q 560 92 601 150 q 457 19 519 43 q 326 -6 394 -6 l 303 -6 q 272 -3 289 -6 q 249 -1 257 -3 q 211 8 240 0 q 131 57 163 28 q 86 128 99 86 l 76 190 l 74 257 q 88 438 74 317 l 101 610 q 117 630 106 625 q 149 638 128 635 l 164 638 q 215 578 192 600 q 274 556 239 556 q 333 565 308 556 q 368 599 357 575 l 378 636 q 360 684 378 663 q 324 715 343 706 l 288 726 l 258 729 q 154 688 200 729 q 121 707 131 685 l 103 751 l 68 890 q 51 958 58 932 q 32 1017 43 985 q 42 1058 28 1044 q 90 1086 57 1071 l 186 1100 l 293 1106 q 386 1103 361 1106 q 458 1094 411 1101 q 618 1063 543 1086 z "},"6":{"ha":657,"x_min":29,"x_max":629,"o":"m 531 1060 q 593 919 593 1001 q 572 844 593 886 q 493 803 550 803 q 453 815 471 803 q 436 849 436 826 l 439 889 l 443 917 q 437 947 443 938 q 414 968 431 957 q 368 956 385 972 q 332 910 351 940 q 303 847 313 879 q 294 785 294 814 q 322 739 294 735 l 360 742 q 499 706 436 742 q 583 611 563 671 q 617 492 604 551 q 629 372 629 433 q 608 222 629 290 q 548 96 586 153 q 451 17 510 39 q 329 -4 393 -4 q 192 28 246 -4 q 67 197 104 89 q 29 439 29 304 q 42 612 29 539 q 69 729 56 685 q 115 850 83 774 q 214 1008 147 926 q 390 1106 281 1089 q 471 1097 439 1106 q 531 1060 503 1088 m 344 619 q 314 603 325 619 q 301 560 306 586 q 325 519 306 535 q 371 504 344 504 l 399 503 q 437 508 425 503 q 449 532 449 513 q 447 541 447 536 q 439 558 446 546 q 401 599 432 578 q 344 619 376 619 z "},"7":{"ha":599,"x_min":25,"x_max":576,"o":"m 511 1092 q 557 1058 539 1079 q 576 1019 576 1042 q 547 972 576 1007 q 496 873 517 936 q 475 736 475 810 q 523 462 475 653 q 571 200 571 271 q 571 167 571 183 q 564 117 567 142 q 531 56 561 92 q 463 10 500 19 l 389 -1 l 319 -6 q 165 21 231 -6 q 57 115 99 47 q 25 238 25 179 q 97 432 25 326 l 235 632 q 272 706 256 671 q 305 779 289 740 q 321 882 321 818 l 317 911 q 301 932 315 924 q 269 940 288 940 q 236 932 251 940 q 208 907 225 924 q 164 863 190 890 q 110 836 138 836 l 92 840 q 72 860 81 844 q 65 900 65 878 q 85 983 65 928 q 120 1067 104 1038 q 188 1108 136 1096 l 274 1110 l 354 1111 q 397 1111 376 1111 q 435 1108 417 1111 q 474 1102 450 1108 q 511 1092 497 1096 z "},"8":{"ha":676,"x_min":32,"x_max":646,"o":"m 538 1046 q 560 1008 549 1039 q 572 947 572 978 q 543 863 572 894 l 490 811 q 467 764 467 788 q 511 688 467 744 q 556 623 532 664 q 601 533 579 582 q 635 435 624 483 q 646 333 646 386 q 645 301 646 318 q 640 253 644 283 q 617 182 636 222 q 535 60 593 113 q 424 1 476 8 l 356 -3 l 328 -4 q 173 25 238 -4 q 79 108 108 54 q 45 194 53 163 q 35 244 38 226 q 32 279 32 263 q 88 486 32 374 l 181 671 q 218 757 218 744 q 194 807 218 774 l 158 864 q 149 883 156 868 q 133 922 142 897 q 124 971 124 946 q 144 1038 124 1006 q 216 1090 165 1071 q 326 1110 267 1110 q 441 1094 388 1110 q 538 1046 494 1079 m 336 978 q 314 958 324 974 q 304 922 304 942 l 307 901 q 360 832 328 832 q 394 859 381 832 q 408 926 408 886 q 390 965 406 949 q 353 981 374 981 l 336 978 m 308 642 l 299 613 l 294 589 q 308 560 294 572 q 356 547 328 547 q 390 555 376 547 q 410 582 403 563 q 410 599 410 593 q 408 617 410 608 q 393 658 407 626 q 354 689 379 689 q 308 642 331 689 z "},"9":{"ha":644,"x_min":29,"x_max":614,"o":"m 531 946 q 593 758 572 860 q 614 547 614 657 q 586 303 614 418 q 497 92 558 188 q 414 22 465 49 q 307 -1 363 -1 l 269 0 q 203 17 256 0 q 103 108 150 35 q 44 254 57 182 l 32 367 l 29 453 q 31 513 29 483 q 38 585 32 543 q 53 659 43 628 q 75 697 64 690 q 107 706 86 703 q 140 696 125 706 q 191 652 160 668 q 256 636 222 636 q 306 648 283 636 q 340 678 328 660 q 351 710 351 696 q 342 735 351 724 l 232 760 q 110 801 131 781 q 75 846 89 821 q 67 897 67 869 l 68 922 l 76 963 q 108 1024 83 990 q 177 1082 132 1058 q 279 1106 222 1106 q 423 1062 356 1106 q 531 946 490 1018 m 272 976 q 226 957 243 972 q 210 918 210 944 q 265 869 222 886 l 342 854 q 353 888 353 863 l 351 922 q 328 963 351 950 q 272 976 306 976 z "}," ":{"ha":347,"x_min":0,"x_max":0,"o":""},"!":{"ha":635,"x_min":29,"x_max":608,"o":"m 579 1018 q 562 958 579 990 q 490 877 544 926 q 424 781 435 828 l 432 724 l 442 669 l 438 638 q 390 603 421 615 q 324 593 356 593 q 258 599 292 593 l 194 615 q 161 679 161 631 q 164 710 161 700 l 172 740 q 192 797 192 768 q 122 909 192 842 q 53 1010 53 976 q 67 1047 53 1028 q 115 1086 82 1067 q 204 1114 146 1100 q 258 1121 231 1118 q 313 1124 285 1124 q 490 1097 414 1124 q 579 1018 565 1069 m 460 494 q 534 304 460 425 q 608 129 608 183 q 591 61 608 92 q 529 -4 574 31 q 442 -38 488 -26 q 366 -54 397 -50 q 306 -58 335 -58 q 194 -42 247 -58 q 102 9 140 -26 q 47 98 64 44 q 29 217 29 151 q 43 339 29 282 q 81 462 56 401 q 159 538 107 522 q 310 564 211 554 q 368 563 351 564 q 414 552 385 561 q 460 494 443 543 z "},"\"":{"ha":692,"x_min":4,"x_max":639,"o":"m 282 1201 q 297 1140 290 1179 l 301 1071 q 273 901 301 988 q 196 738 244 814 q 132 677 153 690 q 94 657 111 664 q 60 650 78 650 l 43 651 q 33 683 35 665 q 61 748 33 706 q 94 813 89 790 l 97 839 q 51 947 97 874 q 4 1056 4 1021 q 13 1100 4 1075 q 61 1214 24 1165 q 157 1283 99 1263 q 233 1263 199 1288 q 282 1201 267 1239 m 619 1218 q 635 1157 628 1196 l 639 1088 q 610 917 639 1004 q 533 754 582 831 q 469 694 490 707 q 432 674 449 681 q 397 667 415 667 l 381 668 q 371 700 372 682 q 399 765 371 722 q 432 829 426 807 l 435 856 q 388 964 435 890 q 342 1072 342 1038 q 350 1117 342 1092 q 399 1231 361 1182 q 494 1300 436 1279 q 570 1280 536 1304 q 619 1218 604 1256 z "},"$":{"ha":539,"x_min":25,"x_max":515,"o":"m 318 985 q 403 951 365 975 q 456 886 442 928 l 460 858 l 461 838 q 454 796 461 811 q 431 765 450 779 q 388 750 413 750 q 363 752 371 750 q 342 763 356 754 q 320 817 328 771 q 281 868 313 864 q 248 852 261 861 q 226 822 235 843 q 358 705 249 772 q 491 565 467 638 q 515 411 515 492 q 464 192 515 286 q 369 113 451 142 q 289 32 289 88 l 290 8 l 281 6 l 260 4 l 235 4 q 224 38 229 15 l 221 78 q 50 233 100 111 q 25 426 25 324 q 56 618 25 532 q 88 639 71 639 q 133 609 104 639 q 176 579 163 579 q 195 588 183 579 q 217 618 207 596 q 151 706 211 656 q 82 786 90 757 l 75 835 q 75 849 75 843 q 81 877 75 856 q 111 921 86 899 q 178 961 122 935 q 235 1018 231 982 l 244 1054 l 269 1060 q 306 1036 293 1060 q 318 985 318 1013 z "},"&":{"ha":922,"x_min":42,"x_max":881,"o":"m 549 1026 q 556 1001 553 1014 q 558 974 558 989 q 515 863 558 924 l 433 751 q 474 636 433 697 q 528 551 514 575 q 549 517 543 528 l 564 513 q 602 547 581 513 q 640 582 624 582 q 668 572 653 582 q 701 505 692 542 q 713 445 710 468 q 715 390 715 422 l 715 367 q 714 344 715 357 q 713 324 713 331 l 707 258 q 792 117 761 151 q 869 68 822 82 q 881 43 878 61 l 879 17 q 754 -39 831 -39 q 668 -7 713 -39 l 586 53 q 497 -8 553 11 q 379 -26 440 -26 l 311 -22 q 240 -12 286 -22 q 154 28 194 -3 q 88 103 117 60 q 56 187 65 149 q 44 247 47 225 q 42 297 42 268 q 106 544 42 421 q 274 779 171 668 q 263 813 271 790 q 233 875 254 835 q 200 990 200 950 q 207 1034 200 1014 q 235 1078 214 1054 q 289 1112 256 1101 q 358 1122 322 1122 q 400 1119 385 1122 q 451 1111 419 1119 q 506 1084 479 1107 q 549 1026 533 1061 m 365 1031 q 331 992 331 1024 l 335 975 l 353 915 q 375 883 358 901 q 410 934 403 918 q 419 963 418 950 q 421 993 421 976 q 399 1022 417 1010 q 365 1031 385 1035 m 329 631 l 311 603 q 301 560 304 583 q 342 489 301 521 q 374 479 356 481 q 399 489 390 479 q 389 526 394 506 q 371 576 383 546 q 329 631 358 606 z "},"'":{"ha":356,"x_min":4,"x_max":301,"o":"m 282 1201 q 297 1140 290 1179 l 301 1071 q 273 901 301 988 q 196 738 244 814 q 132 677 153 690 q 94 657 111 664 q 60 650 78 650 l 43 651 q 33 683 35 665 q 61 748 33 706 q 94 813 89 790 l 97 839 q 51 947 97 874 q 4 1056 4 1021 q 13 1100 4 1075 q 61 1214 24 1165 q 157 1283 99 1263 q 233 1263 199 1288 q 282 1201 267 1239 z "},"(":{"ha":585,"x_min":26,"x_max":558,"o":"m 521 1175 q 558 1071 558 1129 q 540 1003 558 1036 q 417 881 521 969 q 306 711 314 792 l 290 610 l 286 515 q 303 360 286 431 q 365 232 321 290 q 451 153 419 183 q 510 94 483 122 q 553 3 538 67 l 553 -14 q 539 -77 553 -47 q 503 -133 525 -107 q 449 -158 474 -150 q 394 -167 424 -167 q 339 -157 367 -167 q 130 83 204 -68 q 44 333 56 233 q 30 470 33 433 q 26 553 26 507 q 76 874 26 722 q 235 1146 126 1025 q 323 1201 274 1179 q 415 1222 372 1222 q 472 1212 446 1222 q 521 1175 497 1201 z "},")":{"ha":586,"x_min":26,"x_max":560,"o":"m 499 935 q 523 847 511 897 q 547 717 535 796 q 560 543 560 639 q 543 344 560 439 q 475 116 526 249 q 278 -137 424 -17 q 174 -167 224 -167 q 85 -137 125 -167 q 48 -89 63 -115 q 26 -26 33 -62 q 130 142 26 53 q 250 264 233 232 q 288 410 274 332 q 303 558 303 489 q 281 724 303 650 q 207 858 260 797 l 99 951 q 47 1024 57 990 l 39 1069 q 49 1119 39 1097 q 85 1175 60 1140 q 207 1222 135 1222 q 372 1147 310 1222 q 499 935 435 1071 z "},",":{"ha":392,"x_min":49,"x_max":335,"o":"m 282 299 q 335 104 335 214 q 315 -34 335 35 q 252 -160 294 -103 q 182 -240 210 -217 q 135 -272 154 -264 q 90 -281 115 -281 l 65 -278 q 53 -246 53 -261 q 78 -194 53 -228 q 111 -139 104 -160 l 115 -103 q 82 35 115 -58 q 49 174 49 128 q 57 231 49 201 q 88 286 65 260 q 183 335 117 335 q 282 299 242 335 z "},"-":{"ha":590,"x_min":26,"x_max":564,"o":"m 544 596 q 564 542 564 572 q 539 453 564 514 l 514 388 q 447 365 494 372 q 363 354 399 357 q 288 351 326 351 q 125 364 201 351 q 26 400 49 376 q 60 533 46 492 q 118 601 74 574 l 357 599 l 544 596 z "},".":{"ha":393,"x_min":18,"x_max":374,"o":"m 315 268 q 353 188 342 224 q 369 129 365 153 q 374 78 374 106 q 354 -12 374 29 q 296 -66 335 -54 q 181 -86 257 -78 q 90 -70 129 -86 q 29 -12 51 -54 l 21 26 l 18 68 q 52 214 18 146 q 150 338 86 282 q 196 351 174 351 q 253 333 222 351 q 315 268 283 315 z "},":":{"ha":393,"x_min":18,"x_max":375,"o":"m 322 864 l 360 763 q 375 667 375 710 q 366 604 375 629 q 333 551 357 579 q 169 503 265 503 q 75 528 113 503 q 18 660 18 581 l 19 686 q 83 849 54 793 q 181 939 113 906 l 210 943 q 274 922 243 943 q 322 864 306 900 m 315 268 q 353 188 342 224 q 369 129 365 153 q 374 78 374 106 q 354 -12 374 29 q 296 -66 335 -54 q 181 -86 257 -78 q 90 -70 129 -86 q 29 -12 51 -54 l 21 26 l 18 68 q 52 214 18 146 q 150 338 86 282 q 196 351 174 351 q 253 333 222 351 q 315 268 283 315 z "},";":{"ha":392,"x_min":18,"x_max":374,"o":"m 322 864 q 374 674 374 774 q 361 585 374 629 q 320 538 347 561 q 258 507 293 515 q 185 499 224 499 q 81 525 121 499 q 18 657 18 575 l 19 681 q 85 844 51 782 q 185 933 118 907 l 201 933 q 273 917 243 933 q 322 864 303 900 m 282 299 q 335 104 335 214 q 315 -34 335 35 q 252 -160 294 -103 q 182 -240 210 -217 q 135 -272 154 -264 q 90 -281 115 -281 l 65 -278 q 53 -246 53 -261 q 78 -194 53 -228 q 111 -139 104 -160 l 115 -103 q 82 35 115 -58 q 49 174 49 128 q 57 231 49 201 q 88 286 65 260 q 183 335 117 335 q 282 299 242 335 z "},"?":{"ha":697,"x_min":29,"x_max":665,"o":"m 664 1004 l 665 983 q 575 844 665 913 q 471 757 485 775 q 456 718 457 739 l 457 690 l 460 663 q 451 628 460 642 q 411 610 442 615 q 311 596 356 596 q 220 610 260 596 q 151 661 181 624 q 173 735 151 701 q 269 815 194 768 q 356 888 344 861 q 367 922 367 914 q 352 953 367 939 q 313 976 338 968 q 275 965 292 981 q 251 926 258 949 l 253 906 q 243 865 253 878 q 215 849 233 853 q 148 856 171 849 q 113 886 125 864 q 90 951 93 928 l 94 985 q 111 1018 99 1001 q 227 1081 157 1061 q 376 1101 297 1101 q 405 1101 390 1101 q 439 1099 419 1101 q 521 1090 468 1099 q 566 1084 546 1090 q 616 1060 586 1078 q 664 1004 646 1043 m 485 494 q 559 304 485 425 q 633 129 633 183 q 616 61 633 92 q 554 -4 599 31 q 318 -58 454 -58 q 199 -43 254 -58 q 103 8 143 -28 q 47 98 64 44 q 29 217 29 151 q 43 339 29 282 q 81 462 56 401 q 159 538 107 522 q 310 564 211 554 q 424 553 383 564 q 485 494 468 543 z "},"A":{"ha":960,"x_min":44,"x_max":915,"o":"m 778 1079 q 807 1017 807 1051 q 783 942 807 993 q 756 867 760 892 q 743 769 743 814 q 786 582 743 682 l 871 389 q 904 279 893 332 q 915 174 915 226 q 899 83 915 118 q 843 31 882 49 q 770 8 804 15 q 715 -1 736 1 q 674 -4 694 -4 q 601 4 632 -4 q 545 41 571 13 q 506 114 519 69 q 493 208 493 158 q 514 383 493 275 q 542 537 535 492 q 549 610 549 582 q 533 678 549 649 q 485 713 518 708 q 431 699 453 713 q 406 663 410 686 l 401 626 l 401 606 q 430 410 401 535 q 458 226 458 286 q 449 139 458 176 q 421 62 440 101 q 353 6 401 22 q 249 -10 304 -10 q 224 -9 238 -10 q 184 -4 210 -8 q 135 12 158 0 q 89 47 113 24 q 54 106 72 68 q 47 150 50 129 q 44 196 44 171 q 89 382 44 285 l 181 581 q 228 767 228 683 q 221 842 228 817 q 188 931 215 871 q 161 1013 161 990 q 169 1051 161 1028 q 247 1097 199 1085 q 358 1110 294 1110 l 411 1110 l 493 1111 l 524 1111 q 549 1111 536 1111 q 574 1114 565 1114 q 633 1113 606 1114 q 683 1108 660 1111 q 729 1098 707 1104 q 778 1079 751 1092 m 478 976 q 438 943 450 968 q 426 885 426 918 l 447 879 l 474 882 l 496 886 q 524 878 511 886 q 536 901 536 882 l 536 936 q 478 976 522 976 z "},"B":{"ha":796,"x_min":36,"x_max":760,"o":"m 638 985 l 643 946 q 633 886 643 906 q 610 848 622 867 q 579 801 599 829 q 685 636 660 688 q 721 560 711 585 q 745 480 731 535 q 760 367 760 425 q 728 203 760 278 q 640 81 696 128 q 499 12 583 33 q 328 -10 415 -10 q 211 0 261 -10 q 124 26 154 8 q 69 71 93 44 q 36 136 44 97 q 76 329 36 226 l 157 542 q 197 746 197 650 q 183 819 192 785 q 162 897 175 854 q 110 994 149 940 l 108 1006 l 108 1014 q 156 1089 108 1071 q 339 1111 238 1111 q 535 1081 453 1111 q 638 985 618 1051 m 390 979 q 375 953 375 971 q 388 915 375 940 q 403 875 400 890 q 434 903 422 882 q 446 949 446 924 q 425 974 442 964 q 390 979 408 983 m 403 722 l 390 582 q 397 564 390 571 l 418 558 l 443 564 q 471 593 458 568 q 483 653 483 618 q 481 686 483 676 q 463 714 481 700 q 428 728 446 728 q 403 722 414 728 z "},"C":{"ha":669,"x_min":31,"x_max":640,"o":"m 549 1053 q 578 993 568 1029 q 588 910 588 957 q 565 869 582 885 q 528 844 547 853 l 501 838 q 451 849 469 838 q 426 888 432 861 l 426 904 q 425 932 426 918 q 419 961 424 946 q 389 989 414 976 q 340 968 360 989 q 313 915 319 947 l 300 857 l 294 799 q 294 776 294 785 q 299 748 294 767 q 308 720 304 729 q 319 696 311 711 q 369 650 342 667 q 425 633 396 633 q 463 640 444 633 q 499 678 472 646 q 542 710 519 710 q 567 704 556 710 q 620 555 600 638 q 640 389 640 472 q 615 212 640 296 q 547 79 589 128 q 478 18 506 31 q 424 -1 450 6 q 365 -8 397 -8 l 342 -7 l 329 -7 q 183 42 247 -7 q 75 207 119 92 q 31 486 31 322 q 72 773 31 638 q 192 1017 113 908 q 283 1086 226 1060 q 396 1113 339 1113 q 549 1053 488 1113 z "},"D":{"ha":732,"x_min":29,"x_max":700,"o":"m 565 975 q 700 500 700 746 q 611 144 700 306 q 483 39 565 78 q 310 0 401 0 l 244 4 q 123 31 178 4 q 49 101 68 58 q 29 167 29 143 q 61 272 29 178 l 119 465 q 139 563 132 514 q 146 668 146 613 q 124 820 146 750 q 69 933 103 890 q 36 1004 36 976 q 51 1053 36 1031 q 128 1094 67 1075 q 281 1113 190 1113 q 449 1081 378 1113 q 565 975 519 1050 m 332 929 q 333 844 332 897 q 335 771 335 792 q 340 708 335 742 q 354 640 346 675 q 371 638 365 638 q 390 645 381 638 q 412 669 400 653 q 428 699 424 686 q 435 719 432 711 l 440 774 q 437 823 440 807 q 432 850 433 839 q 420 882 431 861 q 394 921 410 903 q 358 939 378 939 q 332 929 346 939 z "},"E":{"ha":676,"x_min":31,"x_max":642,"o":"m 521 1078 q 559 1019 544 1053 q 574 958 574 986 q 560 906 574 929 q 524 892 546 892 q 481 908 504 892 l 440 951 q 388 978 410 978 q 363 971 378 978 q 346 942 347 964 q 353 916 346 925 q 417 896 361 907 q 469 854 469 888 l 471 822 q 468 790 471 801 q 444 775 465 779 l 424 776 q 385 769 403 776 q 358 747 367 761 q 350 718 350 733 q 374 668 350 672 l 410 664 q 479 713 439 664 q 535 761 519 761 q 574 747 549 761 q 614 676 600 733 l 640 500 l 640 435 l 642 368 q 627 147 642 208 q 581 55 613 86 q 490 7 550 24 q 358 -7 425 -7 q 217 6 288 -7 q 111 42 147 18 q 52 92 74 63 q 31 165 31 122 q 64 346 31 247 l 133 542 q 168 718 168 643 q 168 761 168 739 q 161 799 164 779 q 140 861 158 819 l 100 939 q 81 1017 81 982 l 85 1050 q 167 1103 117 1086 q 283 1117 222 1117 q 326 1117 306 1117 q 371 1114 346 1117 l 469 1108 q 497 1100 486 1108 q 521 1078 504 1097 z "},"F":{"ha":651,"x_min":31,"x_max":621,"o":"m 578 1043 q 597 1010 586 1035 q 614 965 607 986 q 621 918 621 943 q 615 879 621 896 q 572 860 603 860 l 547 864 q 497 917 533 874 q 433 960 460 960 q 412 955 424 960 q 396 942 400 950 l 392 928 q 453 885 397 897 q 508 833 508 876 q 504 787 508 801 q 478 760 500 772 q 444 758 454 760 q 418 749 433 757 q 392 708 397 740 q 435 536 392 628 l 524 354 q 568 186 568 263 q 554 94 568 138 q 458 20 517 42 q 321 -1 399 -1 l 244 3 l 181 8 q 97 43 132 22 q 43 103 63 64 q 31 200 31 153 q 71 385 31 286 l 154 586 q 197 772 197 692 l 138 993 q 150 1046 138 1022 q 183 1081 163 1069 q 249 1100 204 1093 l 346 1106 q 485 1092 424 1106 q 578 1043 547 1079 z "},"G":{"ha":689,"x_min":32,"x_max":660,"o":"m 533 1056 q 562 1016 554 1039 q 572 979 569 993 q 575 947 575 965 q 572 915 575 924 l 567 890 q 537 864 565 879 q 478 849 508 849 q 428 861 449 849 q 408 904 408 874 l 408 925 q 404 953 408 943 q 386 967 400 963 l 371 971 q 335 953 350 971 q 306 903 319 935 q 283 839 292 872 q 277 794 278 806 q 276 774 276 782 q 289 704 276 732 q 325 659 301 676 q 375 642 349 642 q 402 651 388 642 q 424 675 417 661 q 419 703 428 690 q 396 726 411 717 l 375 726 q 350 739 354 726 l 350 757 q 356 794 350 778 q 378 818 363 810 l 431 819 l 486 821 q 562 817 535 821 q 600 809 589 813 q 631 796 611 806 l 635 724 q 629 611 635 676 l 625 519 l 647 261 q 660 76 660 125 q 655 43 660 58 q 613 21 650 28 q 557 39 579 21 l 524 74 q 426 15 478 36 q 310 -7 375 -7 q 175 35 233 -7 q 85 153 117 76 q 64 226 74 189 q 43 330 54 263 q 32 493 32 397 q 121 940 32 742 q 363 1117 200 1092 q 403 1115 382 1117 q 456 1101 425 1113 q 533 1056 500 1089 z "},"H":{"ha":950,"x_min":42,"x_max":907,"o":"m 396 1082 q 408 1039 408 1065 q 399 985 408 1022 l 390 935 q 400 902 390 913 q 442 883 410 892 l 471 882 l 503 881 q 551 890 532 881 q 569 921 569 899 q 568 940 569 926 q 563 972 567 954 l 556 1031 q 565 1075 556 1058 q 601 1104 574 1092 l 651 1111 l 704 1114 q 741 1113 721 1114 q 793 1103 761 1113 q 844 1066 825 1093 q 863 1013 863 1039 q 824 896 863 986 q 786 728 786 806 q 847 422 786 629 q 907 176 907 215 q 907 138 907 157 q 901 113 903 122 q 892 91 899 104 q 869 54 886 78 q 813 15 853 31 q 721 -1 774 -1 l 674 0 l 618 6 q 565 30 592 6 q 515 96 538 54 q 494 233 494 158 q 514 400 494 294 q 540 553 533 506 q 547 629 547 601 q 534 732 547 686 q 482 778 521 778 q 401 732 426 778 q 393 647 393 688 q 400 562 393 610 q 433 400 407 514 q 458 233 458 286 q 457 194 458 214 q 450 145 456 174 q 426 74 444 117 q 363 15 407 31 q 253 -1 319 -1 q 129 19 176 -1 q 62 98 82 40 q 42 207 42 156 q 99 438 42 279 q 156 710 156 596 q 117 887 156 768 q 76 1026 79 1006 q 97 1078 76 1056 q 164 1108 118 1100 q 257 1117 210 1117 q 396 1082 349 1117 z "},"I":{"ha":514,"x_min":24,"x_max":493,"o":"m 444 1085 l 460 1044 l 465 1006 q 454 947 465 981 q 406 837 443 914 q 369 722 369 760 q 369 705 369 711 q 375 676 369 699 q 437 491 381 653 q 493 231 493 329 q 467 83 493 157 q 396 17 443 39 q 286 -4 349 -4 q 205 4 244 -4 q 110 41 165 13 q 33 126 54 69 q 26 169 29 147 q 24 217 24 192 q 39 326 24 264 q 104 517 54 389 q 154 732 154 646 q 154 768 154 750 q 147 807 150 786 q 133 851 144 828 q 99 928 125 878 q 74 1011 74 978 q 88 1066 74 1038 q 152 1111 103 1094 q 268 1128 201 1128 q 381 1115 329 1128 q 444 1085 432 1103 z "},"J":{"ha":639,"x_min":26,"x_max":610,"o":"m 600 1042 l 601 1013 q 554 856 601 965 q 507 699 507 747 l 510 649 q 549 497 510 625 l 597 331 q 610 225 610 286 q 581 100 610 154 q 475 4 551 46 q 332 -25 414 -25 q 279 -22 301 -25 q 231 -10 257 -19 q 137 55 185 3 q 58 201 89 107 q 26 401 26 296 q 39 546 26 472 q 78 688 51 619 q 125 717 93 717 q 154 710 140 717 l 208 656 q 251 635 229 635 q 279 642 267 635 q 314 688 306 665 q 325 724 322 710 q 328 756 328 738 q 303 888 328 796 q 279 1004 279 979 l 276 1028 q 288 1074 276 1054 q 319 1106 299 1094 l 378 1115 l 443 1121 q 540 1103 500 1121 q 600 1042 579 1086 z "},"K":{"ha":829,"x_min":38,"x_max":792,"o":"m 369 1092 q 400 1022 400 1061 q 379 944 400 997 q 358 864 358 890 l 360 842 l 368 822 q 392 811 374 813 l 401 811 l 418 817 q 447 859 439 833 q 456 917 456 885 l 454 961 l 454 978 q 451 1007 454 988 q 466 1072 451 1046 q 525 1110 481 1097 l 564 1124 l 614 1129 q 726 1096 681 1129 q 754 1026 754 1072 q 750 996 754 1011 q 731 956 746 981 q 623 867 715 931 q 507 757 531 804 q 601 619 519 713 q 708 486 682 526 q 763 363 733 446 q 792 199 792 281 q 769 67 792 114 q 710 3 747 21 q 626 -14 672 -14 q 538 5 576 -14 q 474 69 499 24 q 456 136 463 96 l 450 207 q 451 251 450 222 q 457 319 453 279 l 465 428 q 464 463 465 449 q 457 519 463 476 q 447 583 451 561 q 436 617 443 604 q 400 643 428 639 q 351 599 368 631 q 338 529 338 567 q 340 476 338 493 q 343 452 342 460 q 351 422 344 444 l 383 306 q 406 169 406 221 q 372 46 406 104 q 303 0 342 15 q 222 -15 264 -15 q 119 3 174 -15 q 68 50 82 19 l 38 139 q 107 420 38 235 q 176 683 176 606 l 178 708 q 135 881 178 764 q 93 1044 93 997 l 94 1074 q 239 1132 144 1132 q 369 1092 317 1132 z "},"L":{"ha":667,"x_min":32,"x_max":636,"o":"m 435 1064 q 396 960 428 1033 l 358 868 l 351 833 l 349 794 q 356 740 349 761 q 373 707 364 719 q 399 679 382 694 q 444 700 431 675 l 472 749 q 507 771 485 769 q 542 760 525 771 q 622 557 608 693 l 636 322 q 594 93 636 165 q 481 -4 553 21 l 375 -10 l 268 -15 q 130 9 186 -15 q 38 106 74 33 l 32 182 q 92 462 32 268 q 151 735 151 656 q 99 877 151 781 q 46 1017 46 974 q 65 1074 46 1049 q 129 1119 85 1099 l 203 1135 l 275 1140 q 353 1131 318 1140 q 422 1101 388 1122 q 435 1081 435 1090 l 435 1064 z "},"M":{"ha":992,"x_min":38,"x_max":946,"o":"m 435 1033 l 449 1000 l 469 954 q 546 1059 494 1014 q 665 1125 597 1104 l 701 1131 l 742 1132 q 831 1115 790 1132 q 893 1058 871 1099 q 842 886 893 1001 q 792 721 792 771 q 831 567 792 697 l 946 189 q 919 76 946 125 q 824 -19 893 26 l 774 -29 l 715 -33 q 605 -12 654 -33 q 528 60 556 10 q 507 176 507 114 q 566 400 507 238 q 625 633 625 563 q 607 742 625 689 q 581 760 597 760 q 561 753 572 760 q 549 713 553 738 l 544 665 l 549 596 l 553 526 q 525 439 553 471 q 463 406 500 406 q 408 437 432 406 q 383 526 383 468 l 388 588 l 393 654 q 391 689 393 679 q 382 719 389 699 q 351 754 374 754 q 329 738 340 754 q 314 706 318 722 l 311 675 l 315 622 l 319 574 l 447 164 q 426 69 447 113 q 350 -15 404 25 l 294 -22 l 238 -25 l 174 -21 q 109 0 144 -17 q 56 62 74 17 q 38 158 38 107 q 39 199 38 178 q 44 243 40 221 l 78 396 l 150 696 l 150 714 q 148 741 150 724 q 144 767 146 758 q 136 790 142 775 q 116 845 131 814 q 78 926 101 876 q 56 1018 56 976 q 61 1060 56 1044 q 85 1101 65 1079 q 219 1144 136 1144 q 344 1117 286 1144 q 435 1033 401 1089 z "},"N":{"ha":899,"x_min":42,"x_max":857,"o":"m 397 1082 q 496 831 451 988 l 558 601 q 592 525 579 528 q 599 538 599 532 q 573 765 599 654 q 522 944 547 876 q 497 1024 497 1013 q 520 1082 497 1054 q 575 1115 543 1110 l 632 1125 l 686 1129 q 765 1116 731 1129 q 828 1069 800 1103 l 833 1028 q 786 883 833 990 q 739 731 739 776 l 740 703 q 799 428 740 617 q 857 165 857 239 l 853 101 q 847 72 851 90 q 838 38 843 53 q 778 -5 815 10 q 704 -19 742 -19 l 686 -19 q 660 -17 676 -19 q 628 -12 644 -15 q 581 -1 613 -10 q 517 82 540 24 q 501 144 508 117 q 489 183 493 172 l 436 451 q 369 697 411 589 l 361 707 q 351 710 360 708 q 318 632 318 689 q 321 596 318 611 q 356 475 324 581 l 447 172 q 426 75 447 119 q 351 -8 404 31 l 288 -18 l 232 -21 q 132 -1 171 -21 q 77 46 94 13 q 43 138 60 79 l 42 163 l 42 183 q 88 406 42 267 q 149 610 133 544 q 164 715 164 675 q 161 760 164 740 q 149 817 158 781 q 108 904 139 853 l 79 974 q 71 1026 71 997 q 81 1072 71 1053 q 153 1120 108 1103 q 249 1138 199 1138 q 331 1124 294 1138 q 397 1082 368 1111 z "},"O":{"ha":718,"x_min":33,"x_max":679,"o":"m 515 1069 q 637 839 594 981 q 679 404 679 697 l 679 269 q 624 99 667 174 q 506 -14 582 24 q 437 -35 472 -28 q 358 -42 401 -42 q 263 -31 306 -42 q 164 33 221 -19 q 70 200 107 85 q 33 450 33 315 l 38 565 q 46 650 38 599 q 60 739 54 701 q 159 1014 117 931 q 269 1110 201 1097 l 353 1122 l 386 1124 q 456 1113 425 1124 q 515 1069 486 1101 m 356 963 q 315 940 331 963 q 294 894 300 917 l 288 846 l 286 806 l 286 743 q 307 710 286 721 q 356 699 328 699 q 404 710 385 699 q 424 743 424 722 l 424 800 l 424 821 q 424 836 424 828 q 421 850 421 846 q 411 897 421 869 q 392 946 403 929 q 356 963 381 963 z "},"P":{"ha":633,"x_min":29,"x_max":604,"o":"m 590 1000 q 604 933 604 965 q 589 859 604 897 q 549 794 574 821 q 433 708 525 767 q 329 582 342 649 q 417 348 329 493 q 504 125 504 203 q 490 50 504 86 q 403 -7 458 15 q 283 -25 346 -25 q 204 -19 243 -25 q 149 -9 165 -12 q 103 5 133 -6 q 53 44 74 15 q 32 111 32 74 q 53 293 32 189 l 94 506 q 117 694 117 621 q 97 848 117 778 q 32 978 78 918 l 29 1003 q 45 1058 29 1035 q 96 1100 61 1081 l 221 1122 q 328 1131 271 1131 q 483 1101 415 1131 q 590 1000 551 1072 m 301 983 q 283 935 283 963 q 284 913 283 919 q 292 878 285 906 q 299 835 299 850 l 297 822 l 307 822 q 346 868 332 839 q 360 922 360 897 q 357 943 360 936 q 342 968 357 954 q 301 983 329 983 z "},"Q":{"ha":758,"x_min":35,"x_max":724,"o":"m 488 1074 q 623 797 574 956 q 672 476 672 639 q 621 154 672 307 l 553 46 l 557 29 q 640 -1 574 8 q 715 -36 707 -10 q 724 -75 724 -62 q 712 -112 724 -99 q 686 -137 700 -126 q 653 -160 672 -149 l 622 -164 q 518 -124 561 -164 q 419 -4 475 -83 q 353 -14 385 -14 q 254 8 299 -14 q 167 75 210 31 q 67 271 100 157 q 35 503 35 385 q 43 638 35 572 q 80 808 51 704 q 154 992 108 913 q 238 1093 200 1071 q 303 1124 276 1115 q 357 1132 329 1132 q 428 1117 397 1132 q 488 1074 461 1104 m 288 908 q 278 829 278 869 q 284 761 278 788 q 310 707 290 735 q 356 729 325 722 l 419 735 q 431 761 426 742 l 433 804 l 429 871 l 419 924 q 400 969 415 951 q 361 989 385 986 q 288 908 313 989 z "},"R":{"ha":810,"x_min":38,"x_max":772,"o":"m 583 996 l 589 954 q 574 883 589 910 q 542 831 558 856 q 499 772 525 806 l 642 607 q 735 415 699 518 q 772 208 772 311 q 770 150 772 167 q 761 106 768 133 q 750 57 757 78 q 729 10 743 36 q 682 -26 710 -14 q 618 -37 654 -37 q 593 -36 608 -37 q 546 -30 578 -35 q 481 35 514 -25 q 438 133 447 96 q 423 193 428 171 q 418 232 418 215 l 417 276 l 421 376 l 426 465 q 424 524 426 506 q 417 557 421 543 q 406 588 414 571 q 376 606 399 606 q 358 595 365 606 q 351 560 351 585 l 347 514 q 363 386 347 467 l 382 285 q 397 158 397 231 q 397 114 397 138 q 386 58 396 90 q 330 -10 378 17 q 210 -37 282 -37 q 115 -12 161 -37 q 54 57 75 13 q 38 165 38 103 q 38 190 38 178 q 40 221 38 203 l 46 278 q 113 494 89 393 q 138 693 138 596 q 116 853 138 782 q 40 989 94 924 l 39 997 l 39 1004 q 56 1044 39 1028 q 107 1083 72 1061 q 199 1106 160 1100 q 266 1115 239 1113 q 322 1118 293 1118 q 477 1090 408 1118 q 583 996 546 1063 m 285 961 l 313 806 l 326 800 q 346 811 335 800 l 361 828 l 383 878 l 386 907 l 382 936 q 362 962 378 951 q 322 975 346 972 q 285 961 300 975 z "},"S":{"ha":656,"x_min":33,"x_max":626,"o":"m 536 1010 q 549 961 549 986 q 543 922 549 938 q 518 880 538 907 q 451 853 499 853 q 404 864 425 853 q 372 944 393 875 q 314 1014 356 1014 l 289 1010 q 251 985 263 1001 q 236 957 240 968 q 232 933 232 946 q 241 908 232 921 q 397 805 250 894 q 574 643 544 715 q 626 410 626 542 q 608 251 626 317 q 571 149 589 186 q 528 75 553 111 q 431 8 488 33 q 373 -8 400 -3 q 313 -14 346 -14 q 213 0 256 -14 q 100 90 143 26 q 36 240 57 154 l 35 314 l 33 396 q 44 549 33 497 q 75 638 56 600 l 100 643 q 151 628 114 643 q 207 611 189 614 q 233 618 222 611 q 258 647 244 625 q 169 783 250 706 q 88 928 88 860 l 88 944 q 113 1023 88 988 q 185 1089 138 1058 q 322 1117 249 1117 q 448 1091 393 1117 q 536 1010 503 1065 z "},"T":{"ha":564,"x_min":28,"x_max":542,"o":"m 414 901 l 403 933 q 382 961 397 946 q 365 958 374 965 q 351 939 356 951 q 389 718 351 839 l 464 479 q 501 260 501 360 q 480 108 501 169 q 392 8 458 46 q 278 -21 346 -21 q 229 -19 243 -21 q 190 -10 215 -17 q 107 21 147 -1 q 47 92 65 47 q 29 199 29 138 q 29 249 29 224 q 35 283 33 272 l 43 351 q 132 588 54 396 q 210 892 210 779 l 208 917 l 208 933 q 200 950 208 942 q 175 954 192 958 q 151 856 163 935 q 94 760 139 778 q 31 815 43 768 l 29 867 l 28 925 q 31 983 28 958 q 44 1044 33 1007 q 99 1108 56 1081 q 131 1114 107 1111 q 165 1117 154 1117 l 281 1119 l 401 1118 q 471 1113 449 1118 q 523 1052 513 1088 q 538 989 533 1017 q 542 925 542 961 l 540 871 l 539 819 q 475 764 529 774 q 428 821 442 776 l 414 901 z "},"U":{"ha":761,"x_min":35,"x_max":721,"o":"m 308 1085 q 334 1032 324 1063 q 344 978 344 1001 q 333 892 344 939 q 314 806 321 844 q 307 756 307 767 q 313 706 307 726 q 338 684 318 693 q 381 675 358 675 q 435 687 413 675 q 465 725 458 699 l 471 768 q 448 900 471 807 q 425 1011 425 993 q 459 1090 425 1061 q 578 1118 493 1118 q 689 1090 657 1118 q 721 1014 721 1065 q 700 919 721 978 l 657 801 q 642 686 642 749 q 669 461 642 608 q 697 251 697 314 q 649 85 697 150 q 474 -6 600 21 l 431 -6 l 388 -7 q 195 20 253 -7 q 101 103 138 47 q 64 201 76 151 q 57 254 60 228 q 54 310 54 281 q 73 489 54 375 q 99 654 92 603 q 106 733 106 706 l 104 785 q 96 838 104 800 l 35 1024 l 36 1051 l 46 1076 q 98 1115 64 1101 q 171 1128 132 1128 q 250 1117 215 1128 q 308 1085 285 1106 z "},"V":{"ha":858,"x_min":39,"x_max":821,"o":"m 379 1029 q 386 998 383 1014 q 389 960 389 982 q 375 842 389 921 l 361 735 q 372 671 361 703 q 401 617 383 639 q 436 600 418 600 q 472 617 451 600 q 503 665 489 633 q 517 739 517 696 q 496 860 517 781 q 475 972 475 939 q 492 1041 475 1010 q 558 1096 510 1072 q 658 1107 611 1107 q 702 1106 689 1107 q 739 1096 715 1104 q 806 1063 776 1088 q 821 1014 821 1040 q 811 964 821 992 l 793 913 q 690 692 728 781 q 625 497 651 604 q 599 275 599 389 l 599 233 l 604 174 q 599 122 604 143 q 572 63 593 100 q 500 3 550 25 q 436 -15 471 -15 q 342 21 382 -15 q 278 114 296 58 q 261 250 261 169 l 263 313 l 264 378 l 263 438 q 254 485 263 457 q 238 566 249 526 q 205 662 228 606 q 111 849 182 718 l 39 985 l 39 1004 q 71 1075 39 1051 q 213 1114 132 1114 q 310 1094 265 1114 q 379 1029 354 1075 z "},"W":{"ha":910,"x_min":42,"x_max":868,"o":"m 342 1081 l 346 1050 q 336 997 346 1028 l 322 947 l 318 914 l 317 889 q 336 842 317 842 q 364 869 349 842 q 379 932 379 897 q 392 1040 379 999 q 429 1095 404 1082 q 469 1111 454 1108 q 501 1100 485 1111 q 522 1069 517 1089 l 525 983 q 538 903 525 946 q 578 861 551 861 q 600 914 600 861 l 599 931 l 599 943 l 589 988 l 585 1026 q 593 1068 585 1050 q 626 1103 601 1086 q 718 1119 672 1119 q 822 1097 769 1119 q 847 1064 839 1081 q 856 1026 856 1047 q 833 952 856 993 q 794 872 811 911 q 770 815 776 833 q 758 758 764 796 l 753 688 q 810 415 753 604 q 868 143 868 225 l 867 118 l 867 101 q 824 28 844 50 q 767 -6 803 7 q 688 -19 731 -19 q 563 15 624 -19 q 492 103 513 53 q 471 214 471 154 q 488 368 471 264 q 506 508 506 472 q 486 621 506 583 q 442 661 469 661 q 413 647 425 661 q 397 606 401 632 l 394 564 l 399 506 l 403 446 l 415 339 l 421 240 q 399 85 421 149 q 325 1 378 22 q 229 -15 275 -15 q 128 13 169 -15 q 65 78 86 40 q 49 157 49 114 q 100 435 49 243 q 151 694 151 626 q 144 781 151 740 q 117 864 136 821 q 76 939 113 889 q 42 1026 42 993 q 49 1065 42 1044 q 110 1105 76 1093 q 168 1121 144 1117 q 219 1125 192 1125 l 263 1122 l 311 1115 q 333 1099 326 1110 l 342 1081 z "},"X":{"ha":833,"x_min":39,"x_max":797,"o":"m 419 976 q 456 1024 438 1000 q 502 1079 474 1047 q 579 1119 531 1111 q 658 1115 631 1119 q 710 1094 685 1111 q 735 1058 735 1078 q 719 1028 735 1042 l 693 1001 l 615 936 q 524 833 550 883 q 669 595 614 700 q 768 363 725 490 l 797 154 q 780 59 797 99 q 717 -10 763 19 q 611 -28 656 -28 q 549 -20 576 -28 q 493 8 522 -12 q 460 63 472 33 q 453 92 456 78 q 450 122 450 107 q 453 162 450 142 q 469 242 456 182 q 482 336 482 303 l 482 357 q 465 549 482 488 q 414 660 451 607 q 367 576 382 628 q 353 468 353 524 l 357 382 q 360 332 357 354 q 368 288 364 310 l 385 204 q 392 164 389 182 q 394 129 394 146 l 390 82 q 372 40 386 61 q 303 -7 344 8 q 207 -28 261 -22 q 106 -1 146 -21 q 47 67 67 19 q 39 172 39 121 q 47 281 39 229 q 85 417 56 333 q 159 580 114 501 q 304 811 204 658 q 217 922 286 864 l 69 1044 q 77 1081 65 1064 q 126 1114 89 1097 q 149 1115 133 1114 q 182 1121 164 1117 l 236 1128 q 276 1121 263 1128 q 310 1096 292 1117 l 367 1019 q 419 976 389 990 z "},"Y":{"ha":689,"x_min":32,"x_max":661,"o":"m 271 1063 l 274 1025 l 272 989 l 271 957 q 288 876 271 904 q 331 849 306 849 q 376 871 358 849 q 399 911 394 893 q 403 953 403 929 l 401 981 l 401 1010 q 411 1073 401 1050 q 454 1108 421 1096 l 497 1115 l 542 1119 q 608 1107 579 1119 q 657 1068 636 1097 l 661 1043 q 571 883 661 1003 q 468 734 481 763 q 456 667 456 706 q 502 511 456 610 q 556 361 549 413 l 565 296 l 569 228 q 558 133 569 175 q 515 49 547 92 q 435 -2 482 15 q 335 -19 388 -19 q 277 -15 304 -19 q 222 0 250 -11 q 95 124 110 57 q 78 208 81 192 q 75 244 75 225 q 148 463 75 325 q 221 676 221 600 l 217 724 q 118 861 204 753 q 32 1038 32 969 q 40 1090 32 1061 q 82 1115 57 1107 q 140 1124 107 1124 q 176 1121 163 1124 l 217 1114 q 253 1094 242 1106 q 271 1063 265 1086 z "},"Z":{"ha":604,"x_min":28,"x_max":576,"o":"m 551 1056 q 560 1019 560 1036 q 526 950 560 988 l 465 885 q 393 813 451 864 l 324 744 l 303 710 q 296 675 299 699 q 333 635 296 635 q 356 643 343 635 q 385 687 368 651 q 415 738 403 722 q 446 754 428 754 q 482 742 458 754 l 506 711 q 541 440 506 633 q 576 168 576 246 q 567 58 576 108 q 493 -15 542 11 q 464 -12 472 -15 l 444 -12 l 354 -17 l 251 -22 q 124 -3 175 -22 q 39 76 72 17 l 31 142 l 28 217 q 33 333 28 268 q 51 475 39 399 l 79 678 q 213 838 107 726 l 322 953 q 313 978 322 967 q 286 994 303 990 q 192 926 239 994 q 108 858 144 858 q 63 871 92 858 l 39 960 l 33 1025 q 44 1090 33 1064 q 140 1113 93 1106 q 218 1124 188 1121 q 283 1126 249 1126 q 521 1090 413 1126 l 551 1056 z "},"a":{"ha":588,"x_min":26,"x_max":563,"o":"m 504 796 q 479 663 504 757 q 454 535 454 569 q 483 428 454 489 q 538 295 513 368 q 563 149 563 222 q 554 69 563 111 q 453 9 514 29 q 321 -11 392 -11 q 272 -10 289 -11 q 212 -1 256 -8 q 124 24 168 7 q 56 94 74 53 q 32 163 38 135 q 26 226 26 190 q 28 279 26 261 q 38 332 29 297 q 58 432 38 383 q 131 549 78 481 q 289 653 185 618 q 321 710 321 672 q 312 739 321 724 q 279 754 303 754 q 257 747 271 754 q 224 694 243 740 q 186 639 206 647 l 154 633 q 119 641 135 633 q 96 667 103 649 l 92 692 l 90 711 q 116 790 90 753 q 200 852 142 828 q 325 876 258 876 q 406 865 369 876 q 467 838 442 854 q 504 796 492 824 m 279 538 q 244 500 256 526 q 232 439 232 474 l 233 414 q 279 367 233 367 q 297 419 292 386 l 303 492 l 303 538 q 294 544 303 544 q 279 538 283 540 z "},"b":{"ha":588,"x_min":28,"x_max":563,"o":"m 268 1078 q 243 945 268 1036 q 218 821 218 854 q 250 801 229 803 q 307 824 267 801 l 358 850 q 385 854 367 854 q 433 840 413 854 q 481 752 453 825 q 529 590 510 679 q 556 444 549 501 q 563 329 563 388 q 551 192 563 256 q 515 74 540 129 q 420 2 475 22 q 294 -18 365 -18 l 274 -18 q 254 -17 265 -18 q 236 -15 243 -15 l 167 -8 q 90 28 125 0 q 39 97 54 57 q 77 381 39 183 q 115 650 115 579 l 111 726 q 110 778 111 763 q 101 826 108 794 q 62 937 93 857 q 28 1036 31 1017 q 75 1106 28 1085 l 135 1113 l 183 1115 q 242 1108 219 1115 q 268 1078 264 1101 m 281 646 l 283 596 l 288 558 q 282 519 288 536 q 290 502 282 508 q 313 493 297 496 l 328 497 q 363 547 349 521 q 376 600 376 574 l 374 624 q 347 685 361 665 q 318 704 333 704 q 294 686 304 704 q 281 646 283 668 z "},"c":{"ha":582,"x_min":28,"x_max":554,"o":"m 458 785 q 472 710 472 736 q 446 633 472 665 q 382 615 414 615 q 343 624 363 615 q 329 683 336 633 q 299 733 329 733 l 279 731 q 237 667 250 706 q 224 583 224 628 q 244 522 224 550 q 297 483 265 493 q 333 474 313 476 q 403 501 357 474 q 465 529 450 529 q 492 524 479 529 q 538 416 522 478 q 554 290 554 354 q 499 74 554 164 q 412 4 465 26 q 292 -18 358 -18 q 244 -17 260 -18 q 201 -8 229 -15 q 67 138 107 43 q 28 361 28 233 q 28 394 28 378 q 31 438 28 411 l 38 529 q 58 620 46 581 q 99 716 69 660 q 199 822 128 772 q 256 845 229 839 q 300 854 283 851 q 336 857 317 857 q 412 841 381 857 q 458 785 443 825 z "},"d":{"ha":619,"x_min":28,"x_max":597,"o":"m 538 1083 l 549 1076 q 554 1064 554 1068 l 536 1015 q 499 876 519 974 q 479 690 479 778 q 492 541 479 611 q 535 399 504 471 q 581 277 565 326 q 597 176 597 228 q 564 57 597 115 q 458 -3 521 18 q 326 -24 394 -24 q 285 -23 307 -24 q 220 -12 264 -22 q 132 18 176 -1 q 56 137 83 58 q 28 378 28 215 q 51 628 28 514 q 132 831 74 742 q 183 853 150 853 q 219 842 204 853 q 292 814 251 814 l 321 818 q 338 871 338 839 q 314 960 338 903 q 290 1042 290 1018 q 303 1081 290 1064 q 351 1109 317 1099 q 418 1119 386 1119 q 538 1083 485 1119 m 226 644 l 218 610 l 215 576 l 219 533 l 244 496 q 281 488 257 483 q 312 494 303 488 q 317 521 321 500 q 308 565 308 533 l 310 601 l 311 642 q 299 675 311 661 q 271 690 286 689 q 226 644 243 690 z "},"e":{"ha":597,"x_min":26,"x_max":568,"o":"m 468 817 q 506 750 501 792 l 510 679 q 472 620 489 638 q 431 597 454 603 q 372 581 414 581 l 321 585 l 272 589 q 235 581 247 589 q 222 550 222 574 q 229 514 222 535 q 256 491 240 497 q 297 482 271 485 q 331 485 321 482 l 363 489 q 417 532 381 492 q 472 572 454 572 q 499 560 482 572 q 554 414 540 497 q 568 213 568 331 q 425 7 554 71 q 303 -12 369 -12 q 225 -3 260 -12 q 160 25 190 6 q 69 161 94 92 q 35 281 43 231 q 26 386 26 331 q 51 590 26 496 q 110 737 76 683 q 201 832 144 790 q 325 865 254 865 q 405 854 371 865 q 468 817 439 843 m 263 749 q 228 724 243 740 q 217 685 214 708 l 361 685 q 377 694 372 685 q 379 718 382 704 q 354 744 371 736 q 315 753 338 753 l 289 751 q 263 749 272 751 z "},"f":{"ha":561,"x_min":25,"x_max":535,"o":"m 471 1071 q 519 1007 503 1043 q 535 922 535 971 q 517 881 535 899 q 471 864 499 864 q 431 872 450 864 q 403 900 411 881 l 396 942 q 383 961 396 957 q 361 965 369 965 q 335 951 347 965 q 324 910 324 936 q 324 886 324 897 q 331 858 325 875 q 356 842 338 842 l 386 842 q 425 838 410 842 q 449 818 438 836 l 447 790 q 444 733 447 749 q 415 707 440 718 q 385 707 397 707 q 355 702 372 707 q 329 671 338 697 q 406 357 329 571 q 482 124 482 143 q 477 76 482 96 q 453 25 472 56 q 385 -18 435 -6 l 314 -28 l 257 -31 q 173 -22 207 -31 q 110 15 139 -12 q 71 88 86 47 q 58 164 58 128 q 110 367 58 221 l 161 515 l 163 569 l 165 604 q 156 668 165 643 q 117 711 147 693 l 57 717 q 25 757 25 717 q 29 812 25 792 q 54 842 33 832 l 93 842 q 122 846 111 842 q 133 868 132 850 l 131 893 l 128 940 q 129 985 128 972 q 141 1027 131 999 q 183 1078 151 1056 q 230 1105 206 1097 q 270 1115 254 1113 q 304 1118 286 1118 q 345 1115 326 1118 q 399 1102 364 1113 q 471 1071 435 1092 z "},"g":{"ha":646,"x_min":29,"x_max":617,"o":"m 569 789 q 541 667 569 744 q 513 553 513 590 q 540 429 513 521 l 617 172 q 601 96 617 128 q 547 29 589 63 q 455 -8 508 6 q 347 -22 401 -22 q 267 -17 301 -22 q 212 -6 233 -11 q 146 20 190 0 q 65 110 101 40 q 29 261 29 179 l 38 350 q 47 424 38 385 q 76 486 57 463 q 125 511 93 511 q 199 481 154 511 q 281 460 243 460 q 351 478 317 460 q 378 531 378 501 l 374 551 l 322 557 l 278 553 l 235 544 l 203 540 q 144 561 172 540 q 100 603 117 582 q 77 642 83 624 q 71 688 71 661 q 99 786 71 746 q 210 855 142 831 q 350 879 278 879 q 535 840 451 879 q 569 789 564 824 m 285 740 q 253 723 267 736 q 239 690 239 710 l 257 678 l 281 675 l 300 676 q 322 679 314 676 l 357 675 l 392 671 q 410 690 414 671 q 375 731 401 714 q 318 744 347 744 l 285 740 z "},"h":{"ha":749,"x_min":33,"x_max":721,"o":"m 325 1069 l 326 1049 q 301 962 326 1024 q 276 882 276 900 l 282 847 q 326 824 286 824 l 346 825 l 381 836 l 439 851 q 496 860 468 860 q 542 852 519 860 q 589 822 565 844 l 600 790 l 604 756 q 600 717 604 742 q 585 654 596 693 q 567 551 567 578 l 568 521 q 607 406 568 513 l 714 111 q 694 34 721 74 q 622 -14 667 -6 l 583 -15 l 540 -17 q 466 -6 496 -17 q 419 42 436 6 l 401 126 l 396 218 q 400 303 396 246 q 404 383 404 360 l 413 514 l 413 546 q 413 575 413 560 q 410 590 410 586 q 408 615 410 607 q 397 651 406 622 q 378 682 389 681 q 355 657 365 682 q 338 589 344 632 l 340 500 l 347 399 q 349 358 347 385 q 354 292 350 331 l 361 188 q 352 94 361 132 q 314 19 343 57 q 267 -8 292 0 q 226 -19 242 -17 q 190 -22 211 -22 q 156 -21 168 -22 q 114 -12 143 -19 q 59 26 85 -4 q 33 93 33 56 q 68 278 33 178 l 139 482 q 175 664 175 586 q 168 738 175 706 q 155 794 164 774 q 136 835 146 815 q 96 914 126 856 q 65 1013 65 972 q 90 1092 65 1051 q 138 1118 107 1108 q 201 1128 169 1128 q 282 1113 250 1128 q 325 1069 315 1100 z "},"i":{"ha":453,"x_min":19,"x_max":431,"o":"m 360 796 l 364 763 q 333 656 364 729 q 303 543 303 582 l 301 514 q 366 316 301 447 q 431 129 431 185 q 406 50 431 89 q 321 -22 382 11 q 215 -42 274 -42 q 83 -7 136 -42 q 33 64 50 29 q 24 100 28 79 q 19 140 19 121 q 79 334 19 204 q 139 532 139 464 l 138 561 l 140 582 q 107 678 140 614 q 74 768 74 742 q 85 805 74 788 q 132 842 97 822 l 182 847 l 233 851 q 307 839 275 851 q 360 796 339 826 m 224 1131 q 313 1101 271 1131 q 356 1026 356 1071 q 327 925 356 969 q 253 881 299 881 q 149 913 193 881 q 106 999 106 944 q 138 1090 106 1049 q 224 1131 171 1131 z "},"j":{"ha":575,"x_min":26,"x_max":550,"o":"m 500 814 q 508 782 508 799 q 506 760 508 768 q 497 735 504 753 l 474 672 l 456 604 l 450 546 q 478 415 450 513 l 550 153 q 535 75 550 110 q 485 6 524 42 q 406 -32 451 -19 q 308 -44 360 -44 q 231 -40 263 -44 l 186 -31 q 61 103 96 14 q 26 314 26 193 l 28 383 l 38 482 q 58 581 46 549 q 110 638 69 613 l 129 642 q 186 600 153 642 q 242 558 215 558 q 285 571 257 558 q 313 622 313 583 l 308 654 l 296 688 l 276 731 q 268 771 268 751 q 278 808 268 790 q 403 857 322 857 q 500 814 469 857 m 401 1119 q 481 1088 449 1119 q 515 1011 515 1057 q 485 931 515 964 q 407 899 454 899 q 327 930 361 899 q 293 1006 293 961 q 324 1086 293 1053 q 401 1119 356 1119 z "},"k":{"ha":713,"x_min":33,"x_max":681,"o":"m 333 1071 l 335 1044 q 331 1004 335 1028 q 315 944 326 981 q 297 849 297 872 l 293 779 q 310 657 293 718 q 386 778 336 675 q 503 882 436 882 q 520 882 513 882 q 544 876 528 882 q 603 869 579 876 q 642 836 626 861 q 567 733 642 782 q 475 663 492 685 l 447 631 q 438 599 439 619 l 442 579 q 595 409 546 492 q 663 269 644 326 q 681 151 681 211 q 664 43 681 97 q 616 3 646 17 q 544 -18 586 -11 q 456 -5 492 -18 q 401 46 421 8 q 383 125 390 79 l 379 214 l 379 260 l 381 307 q 372 415 381 371 q 333 510 364 458 l 321 515 q 306 508 313 515 q 297 488 300 500 q 319 301 297 422 q 342 126 342 179 q 333 39 342 85 q 286 -6 324 11 q 203 -22 249 -22 q 90 0 140 -22 q 47 53 61 19 q 33 135 33 88 q 33 176 33 156 q 40 213 38 196 q 43 240 42 229 q 50 269 44 251 l 101 453 q 146 714 146 610 q 136 824 146 774 l 76 1033 q 86 1080 76 1060 q 121 1121 96 1100 l 175 1128 l 217 1131 q 288 1118 258 1131 q 333 1071 317 1106 z "},"l":{"ha":464,"x_min":21,"x_max":443,"o":"m 383 1047 q 392 992 392 1022 q 383 950 392 963 q 315 833 339 897 q 296 703 296 772 q 315 547 296 617 q 389 337 335 478 q 443 165 443 196 q 407 43 443 93 q 319 -1 374 15 q 211 -18 264 -18 q 65 24 111 -18 q 31 88 43 50 q 24 125 26 106 q 21 167 21 144 q 21 214 21 190 q 28 250 25 232 q 56 346 31 268 l 117 540 q 153 753 153 661 q 137 874 153 819 q 81 983 121 928 q 72 1021 72 1003 q 88 1074 72 1051 q 132 1106 104 1096 l 186 1117 l 240 1121 q 326 1104 289 1121 q 383 1047 363 1088 z "},"m":{"ha":972,"x_min":44,"x_max":928,"o":"m 439 850 l 490 764 q 549 831 515 807 q 606 864 582 856 q 658 872 631 872 q 775 867 733 872 q 826 844 817 863 l 840 808 l 844 774 q 820 664 844 739 q 796 561 796 589 q 804 501 796 525 l 869 340 q 928 150 928 203 q 922 94 928 118 q 908 56 915 71 q 888 24 900 42 q 842 -4 874 10 q 814 -11 826 -8 q 785 -14 801 -14 l 754 -11 q 719 -4 738 -11 q 649 75 672 21 q 628 197 628 129 l 656 536 q 644 663 656 628 q 617 699 633 699 q 592 671 604 699 l 575 601 l 569 515 q 583 340 569 456 l 597 179 q 597 129 597 154 q 591 89 593 107 q 586 58 589 71 q 574 24 583 46 q 546 -5 564 3 q 504 -15 528 -12 q 463 -4 479 -15 q 403 80 421 33 q 386 189 386 126 q 400 332 386 235 l 414 471 q 406 601 414 544 q 382 676 397 658 q 350 699 369 697 q 310 613 310 699 l 311 558 q 314 506 311 525 q 339 335 314 451 q 364 160 364 218 l 360 97 q 342 42 356 71 q 297 8 322 18 q 256 -6 272 -3 q 215 -8 239 -8 l 165 -4 l 113 7 q 63 58 83 22 q 48 99 51 82 q 44 133 44 117 q 100 316 44 143 q 156 556 156 489 l 151 610 l 89 728 q 65 825 65 779 l 67 850 q 129 874 88 874 q 169 860 154 874 l 215 799 q 256 840 221 801 q 314 878 285 878 l 350 878 q 402 873 382 878 q 439 850 422 868 z "},"n":{"ha":718,"x_min":32,"x_max":685,"o":"m 578 811 l 581 778 q 559 676 581 747 q 538 574 538 606 q 539 544 538 556 q 549 504 540 533 q 621 322 557 475 q 685 78 685 168 q 664 36 685 56 q 611 4 643 17 l 560 -4 l 514 -8 q 431 13 465 -8 q 379 71 396 33 q 365 161 365 113 l 368 232 l 372 286 l 394 458 q 401 526 399 493 q 404 583 404 558 q 396 681 404 640 q 356 722 388 722 q 313 682 322 722 l 308 585 q 310 513 308 550 q 315 436 311 476 l 329 303 l 336 214 l 339 172 q 326 56 339 101 q 290 3 313 11 l 231 -12 q 160 -21 193 -21 q 92 -8 121 -21 q 51 31 63 6 q 32 96 39 57 q 96 333 32 172 q 160 547 160 493 l 156 599 l 143 646 q 103 714 136 664 q 69 790 69 764 q 74 816 69 804 q 92 842 79 828 q 139 857 106 857 q 186 847 165 857 l 207 815 q 233 807 217 799 q 300 863 258 846 q 401 879 342 879 q 425 879 414 879 q 456 876 436 879 l 510 871 q 543 860 532 871 q 563 835 554 849 q 578 811 571 822 z "},"o":{"ha":568,"x_min":26,"x_max":542,"o":"m 410 842 q 508 641 475 758 q 542 399 542 524 q 514 169 542 276 q 441 51 490 101 q 325 -7 392 1 q 158 35 213 -7 q 71 149 104 76 q 41 252 50 204 q 29 330 32 300 q 26 396 26 360 q 33 507 26 456 q 65 644 40 558 q 147 819 90 729 q 201 867 168 847 q 271 888 235 888 q 349 878 318 888 q 410 842 381 869 m 256 732 l 242 669 l 238 615 q 242 572 238 589 q 265 550 247 556 l 301 544 q 332 549 321 544 q 347 567 343 553 q 347 629 347 597 q 340 674 343 651 q 317 735 338 697 q 292 751 310 751 q 256 732 271 751 z "},"p":{"ha":604,"x_min":22,"x_max":576,"o":"m 557 761 l 571 722 l 576 682 q 568 640 576 661 q 542 596 564 618 q 493 561 519 574 q 392 544 482 554 q 282 475 303 535 q 344 274 282 414 q 407 68 407 135 q 386 27 407 44 q 338 -1 365 10 l 251 -10 l 190 -12 q 103 -4 138 -12 q 53 28 68 4 q 31 81 38 51 q 23 122 24 110 q 22 140 22 133 q 31 213 22 176 q 58 292 39 250 l 117 415 q 138 501 138 460 q 91 652 138 549 q 44 801 44 756 q 135 868 76 847 q 264 889 193 889 q 392 875 328 889 q 492 833 449 860 q 557 761 536 806 m 276 761 q 261 728 261 753 l 265 685 l 276 640 q 289 636 285 636 q 315 647 303 636 l 346 679 q 363 725 363 700 l 358 742 q 338 756 354 749 l 300 761 l 276 761 z "},"q":{"ha":669,"x_min":28,"x_max":639,"o":"m 582 818 l 493 518 q 503 454 493 483 q 539 393 514 425 q 611 324 583 361 q 639 242 639 286 q 631 199 639 224 q 551 60 610 119 q 411 -7 492 1 l 365 -11 q 228 39 282 -11 q 200 90 214 57 q 192 151 192 119 q 193 194 192 181 q 201 232 194 208 q 215 276 208 256 q 233 319 222 296 q 282 423 239 339 q 331 561 325 507 q 288 576 317 569 l 236 581 l 207 579 l 179 579 q 117 588 143 579 q 68 622 90 596 q 40 663 49 638 q 31 717 31 688 l 32 742 q 52 804 28 774 q 108 857 76 835 q 319 894 204 894 q 465 876 397 894 q 582 818 532 858 m 279 796 q 251 742 244 778 q 281 705 260 721 q 353 681 301 689 q 374 714 368 689 l 383 768 q 353 791 372 783 q 311 799 333 799 l 294 799 l 279 796 z "},"r":{"ha":544,"x_min":25,"x_max":521,"o":"m 247 821 l 247 799 q 258 788 253 790 l 329 842 q 414 871 374 871 l 429 871 q 474 850 463 864 q 500 803 486 836 l 521 668 q 514 622 521 644 q 484 577 507 599 q 422 556 461 556 q 385 563 403 556 q 361 606 361 575 l 365 638 l 372 665 q 354 681 372 679 q 322 659 335 681 q 299 602 308 638 q 290 533 290 567 q 333 361 290 465 l 429 132 l 431 110 q 379 19 431 43 q 297 -11 328 -6 l 231 -17 q 131 -3 176 -17 q 57 36 86 10 q 25 139 25 83 q 76 315 25 190 q 133 466 126 440 q 139 521 139 492 q 113 636 139 571 l 82 703 l 61 754 q 50 807 53 781 q 62 845 50 829 q 104 869 74 861 q 156 878 135 878 q 211 864 186 878 q 247 821 236 850 z "},"s":{"ha":524,"x_min":24,"x_max":499,"o":"m 383 849 q 438 736 438 815 q 429 679 438 708 q 418 658 429 665 l 394 646 l 369 642 q 304 689 317 642 l 306 697 l 306 704 q 276 757 306 740 q 264 760 268 760 q 238 751 253 760 q 222 725 222 742 q 281 642 229 679 l 374 585 q 463 476 442 539 q 492 368 485 414 q 499 265 499 322 q 481 183 493 222 q 442 91 469 143 q 346 6 415 39 q 251 -8 293 -8 q 177 1 210 -8 q 115 36 144 10 q 46 158 71 85 q 29 233 35 197 q 24 315 24 268 q 44 485 24 425 q 88 544 65 544 q 108 531 100 544 l 125 503 q 154 482 133 489 q 203 510 189 482 q 139 602 203 557 q 71 675 75 647 l 68 718 q 85 789 68 754 q 147 852 101 824 q 265 881 192 881 q 329 873 297 881 q 383 849 361 865 z "},"t":{"ha":465,"x_min":22,"x_max":443,"o":"m 342 994 q 349 969 346 988 q 327 910 349 949 q 306 857 306 872 q 314 835 306 846 q 349 824 319 831 l 378 825 q 418 811 403 825 l 425 778 l 428 756 q 418 725 428 739 q 354 710 408 718 q 299 676 306 710 l 294 640 l 294 625 q 369 393 294 539 q 443 172 443 247 q 440 136 443 150 q 435 105 438 122 q 418 60 432 88 q 346 -1 393 18 q 246 -19 299 -19 q 113 3 183 -19 q 53 72 74 28 q 33 165 33 115 q 40 229 33 203 l 92 386 q 124 501 113 449 q 135 599 135 554 q 125 686 135 647 q 69 712 115 699 q 22 756 22 725 l 25 781 l 32 811 q 56 829 36 828 l 68 828 q 102 840 90 828 q 115 869 114 851 q 113 892 115 883 q 101 926 111 900 q 92 965 92 953 q 107 1003 92 988 q 214 1029 153 1029 q 342 994 285 1029 z "},"u":{"ha":604,"x_min":28,"x_max":576,"o":"m 272 810 l 281 781 l 283 749 q 264 640 283 711 q 244 549 244 569 l 246 519 q 252 493 246 510 q 274 468 258 476 l 308 463 q 351 471 331 463 q 377 499 369 482 q 385 539 385 515 l 381 581 l 374 626 l 331 771 q 356 833 331 804 q 478 876 403 876 q 533 862 508 876 q 575 819 557 847 l 576 803 l 576 786 q 547 635 576 744 q 518 482 518 526 l 519 439 l 532 389 l 558 304 q 575 196 575 242 q 564 122 575 156 q 519 58 553 88 q 428 8 485 28 q 313 -7 374 -7 q 176 10 236 -7 q 92 53 115 26 q 61 91 68 79 q 49 119 54 103 l 42 156 l 42 171 q 63 301 42 214 q 93 435 85 389 q 101 504 101 481 q 94 565 101 539 q 75 624 90 597 l 49 690 q 28 772 28 743 q 35 815 28 797 q 89 863 53 849 q 167 876 125 876 q 231 856 201 872 q 272 810 260 843 z "},"v":{"ha":697,"x_min":32,"x_max":665,"o":"m 289 831 q 327 776 317 807 q 338 706 338 744 l 333 636 l 331 585 q 364 500 331 500 q 396 583 396 500 q 393 624 396 603 q 389 657 390 644 l 382 728 q 398 798 382 768 q 463 853 414 828 q 526 861 492 861 q 557 861 542 861 q 588 854 572 857 q 635 828 604 851 q 665 751 665 806 l 661 718 l 578 547 q 549 478 564 518 q 515 388 533 439 q 476 244 497 338 l 458 111 q 406 0 438 14 q 357 -11 381 -8 q 317 -1 335 -11 q 285 28 300 10 q 226 251 243 94 q 194 480 210 408 q 100 614 178 551 q 45 695 58 665 q 32 756 32 725 q 40 798 32 774 q 76 840 49 822 q 133 864 103 857 l 171 868 q 226 860 201 868 q 260 848 250 853 q 289 831 269 843 z "},"w":{"ha":724,"x_min":32,"x_max":692,"o":"m 335 79 q 315 31 326 50 q 272 -1 303 13 q 194 -15 242 -15 q 89 14 133 -15 q 44 74 63 40 q 32 142 32 106 q 64 268 32 192 l 135 440 q 143 510 143 476 q 111 657 143 594 q 39 771 79 719 l 35 792 q 85 853 35 838 l 135 860 l 176 863 q 239 853 214 863 q 281 819 264 844 l 285 794 q 267 736 285 776 q 253 682 250 696 q 271 653 257 653 q 289 667 279 653 l 306 697 l 331 818 q 378 851 343 851 l 406 847 q 423 826 415 843 q 431 778 431 810 l 431 744 l 431 718 q 442 683 431 707 q 472 660 454 660 q 485 685 485 660 q 482 710 485 701 q 474 742 482 722 q 463 781 467 763 q 458 804 460 799 q 468 833 458 821 q 504 858 478 846 l 547 863 l 579 865 q 624 860 607 865 q 653 840 642 856 q 667 786 667 813 q 658 741 667 767 q 624 664 650 715 q 589 588 597 613 l 585 538 q 597 447 585 499 q 651 291 610 394 q 692 114 692 188 l 690 92 l 685 54 q 632 10 685 31 q 515 -8 578 -8 q 435 10 468 -8 q 382 74 403 29 l 374 124 l 371 176 q 383 340 371 224 q 396 532 396 456 q 391 573 396 554 q 369 592 386 592 q 347 576 358 592 q 335 529 335 560 l 335 504 l 340 374 l 346 211 q 335 79 346 119 z "},"x":{"ha":693,"x_min":32,"x_max":663,"o":"m 349 756 q 393 783 365 760 l 457 838 q 540 863 490 863 q 597 851 571 863 q 635 817 622 840 l 635 803 q 626 786 635 794 l 547 731 q 440 640 481 685 q 610 368 558 464 q 663 156 663 272 q 647 44 663 94 q 577 2 621 15 q 486 -11 533 -11 q 415 3 439 -11 q 374 62 386 26 q 363 140 363 97 q 367 206 363 174 q 378 291 371 239 q 386 374 386 343 q 377 453 386 422 q 342 518 368 485 q 313 456 322 490 q 303 378 303 421 q 313 269 303 338 l 322 163 q 307 72 322 110 q 250 -1 292 33 q 206 -8 228 -6 q 164 -11 183 -11 q 83 3 115 -11 q 43 58 58 22 q 35 93 38 76 q 32 136 32 110 q 33 179 32 167 q 45 251 40 208 q 110 402 50 293 q 267 622 169 511 q 176 715 250 665 q 83 783 103 764 l 79 803 q 101 836 79 824 l 140 857 l 182 861 q 276 833 235 861 q 349 756 318 806 z "},"y":{"ha":544,"x_min":25,"x_max":506,"o":"m 231 811 l 239 764 l 242 711 q 264 635 242 635 q 285 656 272 635 q 307 728 297 678 q 321 796 317 778 q 335 831 325 814 q 382 863 346 849 l 424 867 q 482 855 458 867 q 506 818 506 843 q 465 743 506 783 l 392 657 q 364 592 375 635 l 356 557 l 353 521 q 402 341 353 461 q 451 179 451 221 q 440 113 451 146 q 400 49 428 79 q 243 -10 339 -10 q 151 7 190 -10 q 92 56 113 24 q 63 122 72 89 l 56 175 q 121 365 56 243 q 186 543 186 486 q 171 611 186 579 q 135 667 160 642 q 68 725 111 692 q 25 793 25 758 q 44 836 26 815 q 86 861 63 857 l 133 867 q 192 854 167 867 q 231 811 217 842 z "},"z":{"ha":524,"x_min":17,"x_max":504,"o":"m 499 799 l 504 772 q 494 744 504 758 q 388 639 483 731 q 268 500 292 547 q 285 474 261 474 q 308 480 294 474 q 349 517 322 486 l 375 538 q 397 544 382 542 q 418 531 410 544 q 441 456 432 499 q 450 354 450 413 q 454 265 450 296 q 465 208 458 235 q 475 169 472 182 q 478 140 478 157 q 440 44 478 90 q 365 7 401 17 q 299 -7 328 -3 q 243 -11 269 -11 q 108 9 161 -11 q 35 63 54 29 q 17 142 17 99 q 24 217 17 176 q 35 273 32 258 q 46 311 39 288 l 71 435 q 114 540 83 500 l 196 610 q 275 725 267 668 q 246 735 264 732 q 222 727 229 735 q 194 682 214 719 q 147 640 174 644 q 76 688 101 644 q 54 778 54 732 q 63 824 54 793 q 142 863 71 856 l 257 869 q 414 860 364 869 q 499 799 464 851 z "},"":{"ha":582,"x_min":26,"x_max":556,"o":"m 351 976 q 421 955 393 968 q 458 911 449 942 l 472 864 l 476 821 q 470 776 476 794 q 443 742 464 758 l 376 724 q 349 736 363 724 q 336 790 336 749 q 315 849 336 833 q 270 834 285 853 q 236 775 256 815 l 231 738 q 232 715 231 724 q 240 682 233 707 l 254 632 q 283 607 267 614 l 339 592 q 410 621 361 592 q 483 647 460 650 q 538 531 519 599 q 556 396 556 463 q 511 192 556 279 q 408 109 497 138 q 318 18 318 81 l 294 19 q 256 24 268 19 q 247 54 243 29 q 202 104 247 88 q 144 138 157 121 q 57 293 88 201 q 26 489 26 385 q 38 624 26 572 q 60 714 49 676 q 86 785 71 751 q 150 894 101 842 q 254 964 199 946 q 264 999 264 969 q 293 1022 264 1026 l 307 1024 q 351 976 351 1024 z "},"":{"ha":347,"x_min":0,"x_max":0,"o":""},"":{"ha":385,"x_min":17,"x_max":328,"o":"m 328 1256 q 308 1217 322 1239 q 270 1158 293 1194 q 247 1082 247 1121 l 251 1053 q 291 968 256 1036 q 326 858 326 900 q 305 775 326 828 q 252 688 283 722 q 186 640 221 653 q 99 657 136 640 q 43 713 61 674 q 17 858 17 788 q 63 1056 17 958 q 190 1238 108 1154 l 243 1265 q 264 1274 254 1271 q 288 1276 274 1276 q 328 1256 311 1276 z "},"":{"ha":356,"x_min":17,"x_max":314,"o":"m 294 1203 q 310 1142 303 1181 l 314 1072 q 285 902 314 989 q 208 739 257 815 q 144 678 165 692 q 107 658 124 665 q 72 651 90 651 l 56 653 q 46 685 47 667 q 74 749 46 707 q 107 814 101 792 l 110 840 q 63 949 110 875 q 17 1057 17 1022 q 25 1101 17 1076 q 74 1215 36 1167 q 169 1285 111 1264 q 245 1265 211 1289 q 294 1203 279 1240 z "}}}
